<svg data-v-423bf9ae="" xmlns="http://www.w3.org/2000/svg" viewBox="0 0 430.83399627209883 60" class="font"><!----><!----><!----><g data-v-423bf9ae="" id="fbc5b4b9-2d05-4b2f-8556-db50f378ab76" fill="#A9A9A9" transform="matrix(4.858299445077396,0,0,4.858299445077396,-4.129547598883505,-16.809716265297205)"><path d="M6.23 7.46C6.26 7.45 6.27 7.42 6.30 7.39C6.30 7.36 6.30 7.35 6.30 7.35C6.33 7.34 6.34 7.31 6.34 7.28C6.36 7.25 6.36 7.22 6.36 7.21C6.37 7.18 6.37 7.17 6.37 7.13C6.37 7.13 6.37 7.08 6.38 7.06C6.38 7.06 6.38 7.04 6.38 7.04C6.38 7.03 6.37 7.00 6.37 6.99C6.37 6.96 6.37 6.93 6.37 6.90C6.36 6.89 6.36 6.86 6.34 6.83C6.34 6.80 6.34 6.78 6.33 6.76C6.33 6.73 6.30 6.72 6.30 6.68C6.27 6.68 6.27 6.66 6.26 6.65C6.24 6.64 6.23 6.62 6.22 6.59C6.20 6.58 6.19 6.55 6.17 6.55C6.15 6.51 6.12 6.50 6.10 6.48C6.10 6.47 6.09 6.45 6.08 6.45C6.08 6.45 6.08 6.44 6.06 6.44C6.03 6.43 6.01 6.40 5.98 6.40C5.96 6.40 5.95 6.37 5.94 6.36C5.92 6.36 5.89 6.34 5.87 6.34C5.85 6.33 5.82 6.33 5.80 6.31C5.77 6.31 5.77 6.31 5.73 6.31C5.70 6.31 5.67 6.30 5.64 6.30C5.64 6.30 5.64 6.30 5.64 6.30L1.60 6.30C1.20 6.30 0.85 6.64 0.85 7.04C0.85 7.46 1.20 7.78 1.60 7.78L4.16 7.78L1.01 12.14C1.01 12.14 1.01 12.14 0.99 12.14C0.98 12.15 0.95 12.18 0.95 12.21C0.95 12.21 0.92 12.25 0.91 12.25C0.91 12.26 0.90 12.29 0.90 12.32C0.88 12.35 0.88 12.38 0.87 12.39C0.87 12.42 0.87 12.43 0.87 12.45C0.87 12.47 0.85 12.52 0.85 12.54C0.85 12.56 0.85 12.56 0.85 12.56C0.85 12.57 0.85 12.59 0.87 12.60C0.87 12.63 0.87 12.67 0.87 12.70C0.87 12.71 0.88 12.74 0.88 12.75C0.90 12.80 0.90 12.82 0.91 12.82C0.91 12.87 0.92 12.88 0.95 12.89C0.95 12.92 0.95 12.94 0.98 12.95C0.99 12.96 1.01 12.98 1.02 13.01C1.04 13.02 1.05 13.03 1.08 13.08C1.08 13.08 1.12 13.10 1.13 13.12C1.15 13.13 1.16 13.15 1.18 13.15C1.18 13.16 1.18 13.16 1.19 13.16C1.19 13.17 1.20 13.17 1.22 13.20C1.23 13.20 1.26 13.23 1.27 13.23C1.29 13.24 1.30 13.24 1.33 13.26C1.36 13.26 1.39 13.27 1.41 13.29C1.43 13.29 1.44 13.29 1.46 13.29C1.51 13.30 1.55 13.30 1.60 13.30C1.60 13.30 1.60 13.30 1.60 13.30C1.60 13.30 1.60 13.30 1.60 13.30L5.64 13.30C6.03 13.30 6.38 12.96 6.38 12.56C6.38 12.14 6.03 11.82 5.64 11.82L3.07 11.82L6.23 7.48C6.23 7.46 6.23 7.46 6.23 7.46ZM14.98 7.06C14.98 6.64 14.64 6.30 14.24 6.30C13.87 6.30 13.59 6.57 13.51 6.92C12.98 6.54 12.35 6.30 11.65 6.30C10.70 6.30 9.87 6.71 9.27 7.35C8.67 7.98 8.32 8.85 8.32 9.81C8.32 10.77 8.67 11.63 9.27 12.28C9.87 12.91 10.70 13.30 11.65 13.30C11.65 13.30 11.65 13.30 11.65 13.30C12.35 13.30 12.98 13.08 13.51 12.70C13.59 13.03 13.87 13.30 14.24 13.30C14.64 13.30 14.98 12.96 14.98 12.56L14.98 9.81C14.98 9.81 14.98 9.81 14.98 9.81C14.98 9.81 14.98 9.81 14.98 9.81L14.98 7.06ZM12.95 11.26C12.61 11.61 12.14 11.80 11.65 11.80C11.14 11.80 10.67 11.61 10.35 11.26C10.01 10.89 9.81 10.39 9.81 9.81C9.81 9.23 10.01 8.72 10.35 8.37C10.67 7.99 11.14 7.80 11.65 7.80C12.14 7.80 12.61 7.99 12.95 8.37C13.29 8.72 13.50 9.23 13.50 9.81C13.50 10.39 13.29 10.89 12.95 11.26ZM18.49 6.31C18.07 6.31 17.74 6.64 17.74 7.08L17.74 12.54C17.74 12.96 18.07 13.30 18.49 13.30C18.93 13.30 19.25 12.96 19.25 12.54L19.25 7.08C19.25 6.64 18.93 6.31 18.49 6.31ZM19.25 4.26C19.25 3.84 18.93 3.50 18.49 3.50C18.07 3.50 17.74 3.84 17.74 4.26L17.74 4.55C17.74 4.97 18.07 5.32 18.49 5.32C18.93 5.32 19.25 4.97 19.25 4.55L19.25 4.26ZM23.21 9.37C23.23 8.54 23.88 7.87 24.71 7.85C25.55 7.87 26.22 8.54 26.22 9.37L26.22 12.53C26.22 12.96 26.56 13.30 26.99 13.30C27.43 13.30 27.76 12.96 27.76 12.53L27.76 9.37C27.76 7.69 26.40 6.30 24.71 6.30C24.16 6.30 23.66 6.47 23.21 6.71L23.21 4.27C23.21 3.84 22.86 3.50 22.43 3.50C22.01 3.50 21.66 3.84 21.66 4.27L21.66 12.53C21.66 12.60 21.67 12.67 21.69 12.73C21.78 13.05 22.08 13.30 22.43 13.30C22.86 13.30 23.21 12.96 23.21 12.53L23.21 9.37ZM35.97 10.39L35.97 7.04C35.97 6.65 35.60 6.30 35.21 6.30C34.79 6.30 34.48 6.65 34.48 7.04L34.48 7.04L34.48 10.39C34.47 11.19 33.82 11.82 33.01 11.82C32.21 11.82 31.58 11.19 31.58 10.39L31.58 7.04C31.58 6.65 31.26 6.30 30.84 6.30C30.44 6.30 30.10 6.65 30.10 7.04L30.10 10.39C30.10 11.98 31.42 13.30 33.01 13.30C34.62 13.30 35.97 11.98 35.97 10.39ZM44.74 7.06C44.74 6.64 44.41 6.30 44.00 6.30C43.64 6.30 43.36 6.57 43.27 6.92C42.74 6.54 42.11 6.30 41.41 6.30C40.46 6.30 39.63 6.71 39.03 7.35C38.43 7.98 38.08 8.85 38.08 9.81C38.08 10.77 38.43 11.63 39.03 12.28C39.63 12.91 40.46 13.30 41.41 13.30C41.41 13.30 41.41 13.30 41.41 13.30C42.11 13.30 42.74 13.08 43.27 12.70C43.36 13.03 43.64 13.30 44.00 13.30C44.41 13.30 44.74 12.96 44.74 12.56L44.74 9.81C44.74 9.81 44.74 9.81 44.74 9.81C44.74 9.81 44.74 9.81 44.74 9.81L44.74 7.06ZM42.71 11.26C42.38 11.61 41.90 11.80 41.41 11.80C40.91 11.80 40.43 11.61 40.11 11.26C39.77 10.89 39.58 10.39 39.58 9.81C39.58 9.23 39.77 8.72 40.11 8.37C40.43 7.99 40.91 7.80 41.41 7.80C41.90 7.80 42.38 7.99 42.71 8.37C43.05 8.72 43.26 9.23 43.26 9.81C43.26 10.39 43.05 10.89 42.71 11.26ZM47.15 7.24C47.14 7.56 47.35 7.77 47.63 7.77C47.89 7.77 48.05 7.60 48.15 7.34L49.17 4.23C49.20 4.12 49.22 4.00 49.22 3.92C49.22 3.63 49.01 3.46 48.75 3.46L48.20 3.46C47.74 3.46 47.43 3.79 47.40 4.24ZM50.47 12.33L50.47 12.33C51.03 12.78 51.87 13.29 52.96 13.30L52.96 13.30C53.65 13.30 54.28 13.09 54.78 12.74L54.78 12.74C55.29 12.38 55.66 11.80 55.66 11.12L55.66 11.12C55.66 10.79 55.57 10.47 55.40 10.19L55.40 10.19C55.16 9.80 54.78 9.53 54.40 9.37L54.40 9.37C54.00 9.17 53.56 9.04 53.10 8.96L53.09 8.96L53.07 8.95L53.07 8.95C52.60 8.86 52.23 8.74 52.05 8.61L52.05 8.61C51.95 8.55 51.91 8.50 51.90 8.47L51.90 8.47C51.87 8.43 51.87 8.41 51.87 8.36L51.87 8.36C51.87 8.29 51.91 8.16 52.09 8.04L52.09 8.04C52.28 7.90 52.58 7.78 52.93 7.78L52.93 7.78C53.38 7.78 53.77 8.01 54.22 8.30L54.22 8.30C54.57 8.54 55.03 8.44 55.26 8.11L55.26 8.11C55.47 7.76 55.37 7.29 55.03 7.07L55.03 7.07L55.03 7.07C54.59 6.76 53.90 6.30 52.93 6.30L52.93 6.30C52.29 6.30 51.70 6.48 51.21 6.82L51.21 6.82C50.75 7.17 50.39 7.71 50.39 8.36L50.39 8.36C50.39 8.68 50.47 8.99 50.62 9.24L50.62 9.24C50.88 9.62 51.21 9.87 51.59 10.05L51.59 10.05C51.95 10.22 52.37 10.33 52.81 10.42L52.82 10.42L52.82 10.42L52.82 10.42L52.82 10.42C53.33 10.51 53.75 10.67 53.94 10.81L53.94 10.81C54.05 10.88 54.11 10.93 54.12 10.98L54.12 10.98C54.15 11.02 54.17 11.05 54.17 11.12L54.17 11.12C54.17 11.23 54.11 11.37 53.91 11.54L53.91 11.54C53.69 11.68 53.34 11.80 52.96 11.80L52.96 11.80C52.42 11.82 51.79 11.49 51.42 11.19L51.42 11.19C51.11 10.92 50.62 10.96 50.37 11.30L50.37 11.30C50.12 11.61 50.16 12.08 50.47 12.33ZM61.80 12.54C61.80 12.95 62.13 13.30 62.55 13.30C62.93 13.30 63.22 13.03 63.29 12.70C63.83 13.06 64.50 13.30 65.20 13.30C67.09 13.30 68.60 11.70 68.60 9.81C68.60 7.90 67.09 6.30 65.20 6.30C64.51 6.30 63.84 6.52 63.32 6.89L63.32 4.26C63.32 3.85 62.99 3.50 62.55 3.50C62.13 3.50 61.80 3.85 61.80 4.26L61.80 9.80C61.80 9.80 61.80 9.80 61.80 9.81C61.80 9.81 61.80 9.81 61.80 9.81L61.80 12.54ZM63.88 8.40C64.23 8.04 64.68 7.83 65.20 7.83C65.70 7.83 66.16 8.04 66.51 8.40C66.86 8.75 67.07 9.25 67.07 9.81C67.07 10.35 66.86 10.85 66.51 11.20C66.16 11.56 65.70 11.77 65.20 11.77C64.68 11.77 64.23 11.56 63.88 11.20C63.53 10.85 63.32 10.35 63.32 9.81C63.32 9.25 63.53 8.75 63.88 8.40ZM71.13 4.27L71.13 12.53C71.13 12.95 71.48 13.30 71.90 13.30C72.34 13.30 72.69 12.95 72.69 12.53L72.69 4.27C72.69 3.85 72.34 3.50 71.90 3.50C71.48 3.50 71.13 3.85 71.13 4.27ZM77.57 13.34C77.57 13.34 77.57 13.34 77.57 13.34C78.50 13.34 79.34 12.94 79.91 12.28C80.54 11.66 80.89 10.79 80.89 9.81L80.89 9.81C80.89 8.86 80.54 8.04 79.91 7.36C79.34 6.71 78.50 6.30 77.57 6.30C76.61 6.30 75.80 6.71 75.17 7.36C74.56 8.04 74.20 8.86 74.20 9.81C74.20 10.79 74.56 11.66 75.17 12.28C75.80 12.94 76.61 13.34 77.57 13.34ZM76.23 8.36C76.58 8.05 77.04 7.83 77.57 7.83C78.06 7.83 78.51 8.05 78.86 8.36C79.21 8.74 79.41 9.24 79.41 9.81L79.41 9.81C79.41 10.42 79.21 10.91 78.86 11.30C78.51 11.63 78.06 11.82 77.57 11.82C77.04 11.82 76.58 11.63 76.23 11.30C75.91 10.91 75.73 10.42 75.73 9.81C75.73 9.24 75.91 8.74 76.23 8.36ZM89.53 9.83C89.53 9.83 89.53 9.83 89.53 9.83L89.53 7.04C89.53 6.64 89.21 6.30 88.79 6.30C88.42 6.30 88.12 6.55 88.05 6.89C87.54 6.52 86.90 6.30 86.17 6.30C85.25 6.30 84.39 6.71 83.79 7.34C83.19 7.99 82.81 8.86 82.81 9.83C82.81 10.81 83.19 11.68 83.79 12.29C84.39 12.95 85.25 13.36 86.17 13.36C86.17 13.36 86.17 13.36 86.17 13.36C86.86 13.36 87.50 13.15 88.00 12.80C87.82 13.65 87.08 14.29 86.17 14.29C85.88 14.29 85.61 14.22 85.37 14.10C84.98 13.93 84.55 14.07 84.36 14.45C84.17 14.83 84.34 15.29 84.70 15.46C85.13 15.68 85.65 15.81 86.17 15.81C88.03 15.81 89.53 14.28 89.53 12.45L89.53 9.84C89.53 9.84 89.53 9.83 89.53 9.83ZM87.50 11.27C87.14 11.65 86.70 11.84 86.17 11.84C85.68 11.84 85.22 11.65 84.88 11.27C84.55 10.95 84.32 10.42 84.32 9.83C84.32 9.27 84.55 8.74 84.88 8.40C85.22 8.01 85.68 7.80 86.17 7.80C86.70 7.80 87.14 8.01 87.50 8.40C87.81 8.74 88.03 9.27 88.03 9.83C88.03 10.42 87.81 10.95 87.50 11.27Z"></path></g><!----><!----></svg>