<?xml version="1.0" standalone="no"?><!DOCTYPE svg PUBLIC "-//W3C//DTD SVG 1.1//EN" "http://www.w3.org/Graphics/SVG/1.1/DTD/svg11.dtd"><svg t="1634097181740" class="icon" viewBox="0 0 1024 1024" version="1.1" xmlns="http://www.w3.org/2000/svg" p-id="2568" xmlns:xlink="http://www.w3.org/1999/xlink" width="200" height="200"><defs><style type="text/css"></style></defs><path d="M777.709071 851.471823c-38.019867-3.327988-73.703742-18.145937-99.805651-42.607851-17.19594-16.115944-18.073937-43.119849-1.957993-60.315789 16.113944-17.19594 43.119849-18.073937 60.315789-1.957993 14.927948 13.989951 45.069842 25.023913 78.743725 18.145936 26.385908-5.391981 63.097779-23.773917 88.171691-80.727717 9.495967-21.567925 34.683879-31.34789 56.247804-21.861924 21.569925 9.495967 31.35789 34.679879 21.861923 56.249803-31.027892 70.483754-84.013706 116.635592-149.193478 129.957546a189.747337 189.747337 0 0 1-54.38381 3.117989z" fill="#F3C74F" p-id="2569"></path><path d="M924.574558 511.479012m-98.007658 0a98.007657 98.007657 0 1 0 196.015315 0 98.007657 98.007657 0 1 0-196.015315 0Z" fill="#0081C6" p-id="2570"></path><path d="M924.574558 511.479012m-45.75584 0a45.75584 45.75584 0 1 0 91.51168 0 45.75584 45.75584 0 1 0-91.51168 0Z" fill="#F3C74F" p-id="2571"></path><path d="M590.271726 177.178181m-98.007657 0a98.007657 98.007657 0 1 0 196.015315 0 98.007657 98.007657 0 1 0-196.015315 0Z" fill="#0081C6" p-id="2572"></path><path d="M590.271726 177.178181m-45.75584 0a45.75584 45.75584 0 1 0 91.51168 0 45.75584 45.75584 0 1 0-91.51168 0Z" fill="#F3C74F" p-id="2573"></path><path d="M542.183894 237.42597c-38.273866-38.273866-38.273866-100.327649 0-138.601515a98.113657 98.113657 0 0 1 20.491929-15.689946 97.539659 97.539659 0 0 0-41.699854 24.751914c-38.271866 38.273866-38.273866 100.327649 0 138.601515 32.013888 32.013888 80.653718 37.22987 118.111587 15.689945-33.265884 9.727966-70.669753 1.481995-96.903662-24.751913z" opacity=".2" p-id="2574"></path><path d="M785.131045 752.116171c119.903581-119.903581 192.675326-392.596627 74.889738-510.382216S469.540148 196.720112 349.636568 316.623693s-119.613582 314.5909 0.643997 434.85048 314.948899 120.547579 434.85048 0.641998z" fill="#40BAB3" p-id="2575"></path><path d="M313.488694 360.109541c-82.125713 119.641582-69.821756 284.749004 36.793871 391.364632s271.72505 118.919584 391.364632 36.793871l-428.158503-428.158503z" fill="#FFFFFF" p-id="2576"></path><path d="M263.392869 487.297096c-14.119951 93.383674 14.847948 192.133328 86.889696 264.177077s170.791403 101.011647 264.177077 86.889696L263.392869 487.297096z" fill="#0081C6" p-id="2577"></path><path d="M396.460404 751.474173c-120.25758-120.25958-120.547579-314.946899-0.643998-434.85048C468.000154 244.437945 595.559708 189.358138 711.357303 182.634161c-126.455558-7.875972-279.773022 52.039818-361.722735 133.989532-119.903581 119.903581-119.613582 314.5909 0.643997 434.85048 66.117769 66.117769 154.737459 95.957665 241.055158 89.509687-70.973752-5.321981-140.525509-35.161877-194.873319-89.509687z" opacity=".2" p-id="2578"></path><path d="M524.201957 339.991611a16.471942 16.471942 0 0 1-11.645959-28.117901l5.959979-5.95998a16.471942 16.471942 0 0 1 23.291919 23.293919l-5.959979 5.959979a16.419943 16.419943 0 0 1-11.64596 4.823983zM778.235069 594.022723a16.469942 16.469942 0 0 1-11.647959-28.113901l5.959979-5.96198a16.467942 16.467942 0 0 1 23.293919-0.002 16.469942 16.469942 0 0 1 0.002 23.291919l-5.95998 5.961979a16.423943 16.423943 0 0 1-11.647959 4.823983zM663.255471 527.770955c-11.943958 0-23.883916-4.543984-32.975885-13.635952-7.907972-7.907972-12.625956-18.153937-13.507952-29.177898a46.415838 46.415838 0 0 1-29.149898-13.479953c-18.183936-18.183936-18.183936-47.769833-0.002-65.95177a16.471942 16.471942 0 0 1 23.293918 23.289919c-5.339981 5.339981-5.339981 14.029951 0 19.369932s14.027951 5.337981 19.365932-0.002a16.471942 16.471942 0 0 1 23.291919 23.295919 13.607952 13.607952 0 0 0-4.009986 9.679966c0 3.657987 1.425995 7.095975 4.011986 9.681966a13.705952 13.705952 0 0 0 19.365932 0 16.471942 16.471942 0 0 1 23.291919 23.295919c-9.091968 9.087968-21.035926 13.633952-32.975885 13.633952z" fill="#394049" p-id="2579"></path><path d="M495.022059 405.523382a16.425943 16.425943 0 0 1-11.645959-4.821983l-36.351873-36.351873a16.471942 16.471942 0 0 1 23.291919-23.293918l36.351873 36.351873a16.471942 16.471942 0 0 1-11.64596 28.115901zM749.053171 659.556494a16.419943 16.419943 0 0 1-11.645959-4.823983l-36.351873-36.353873a16.469942 16.469942 0 1 1 23.293919-23.289918l36.351873 36.353872a16.471942 16.471942 0 0 1 0 23.293919 16.439943 16.439943 0 0 1-11.64796 4.819983z" fill="#F0B0B7" p-id="2580"></path><path d="M10.031755 988.463344l420.58453 35.457876c12.491956 1.051996 23.211919-8.801969 23.211918-21.335925V21.416725c0-12.535956-10.721963-22.389922-23.211918-21.337925L10.031755 35.534676a9.401967 9.401967 0 0 0-8.61197 9.367967v934.188734a9.399967 9.399967 0 0 0 8.61197 9.371967z" fill="#A27B5A" p-id="2581"></path><path d="M358.524537 551.556872m-40.22386 0a40.223859 40.223859 0 1 0 80.447719 0 40.223859 40.223859 0 1 0-80.447719 0Z" opacity=".2" p-id="2582"></path><path d="M373.260485 532.802937m-40.223859 0a40.223859 40.223859 0 1 0 80.447718 0 40.223859 40.223859 0 1 0-80.447718 0Z" fill="#F3C74F" p-id="2583"></path><path d="M376.100475 492.715077c-7.367974 5.80798-12.115958 14.789948-12.115958 24.899913 0 17.513939 14.19795 31.713889 31.71389 31.713889 5.78998 0 11.203961-1.575994 15.877944-4.287985 1.233996-3.861986 1.909993-7.971972 1.909993-12.241957-0.002-21.259926-16.501942-38.621865-37.385869-40.08386z" fill="#FFFFFF" opacity=".4" p-id="2584"></path><path d="M430.618285 0.0788L247.454925 15.520746c-19.267933 26.905906-30.645893 59.845791-30.645893 95.463666 0 90.683683 73.511743 164.195426 164.195426 164.195426a163.459429 163.459429 0 0 0 72.825745-17.031941V21.416725c0-12.537956-10.719963-22.389922-23.211918-21.337925z" fill="#FFFFFF" opacity=".1" p-id="2585"></path></svg>